# xmcd
#
# Track frame offsets:
#	150
#	16370
#	28867
#	47322
#	60877
#	76342
#	90357
#	110375
#	138912
#	154260
#	170677
#	192545
#	207140
#	225207
#	247110
#	267817
#	284007
#	305805
#	318812
#	335442
#
# Disc length: 4731 seconds
#
# Revision: 0
# Processed by: cddbd v1.4PL0 Copyright (c) Steve Scherf et al.
# Submitted via: dBpowerAMP V4.0
#
DISCID=0a127914
DTITLE=Billy Paul - 20 Super Sucessos
DYEAR=1900
DGENRE=
TTITLE0=Malorie
TTITLE1=Thanks For Saving My Life
TTITLE2=War Of The Gods
TTITLE3=Without You
TTITLE4=Word Sure Gets Around
TTITLE5=One Man's Junk
TTITLE6=Me And Mrs. Jones
TTITLE7=Your Song
TTITLE8=Don't Give Up On Us
TTITLE9=It's Too Late
TTITLE10=America (We Need The Light)
TTITLE11=We All Got A Mission
TTITLE12=New Day, New World Comin'
TTITLE13=Bring The Family Back
TTITLE14=So Glad To See You Again
TTITLE15=It's Critical
TTITLE16=Sooner Or Later
TTITLE17=Thank You (For This Blessing)
TTITLE18=Game Of Life
TTITLE19=Brown Baby
EXTD=
EXTT0=
EXTT1=
EXTT2=
EXTT3=
EXTT4=
EXTT5=
EXTT6=
EXTT7=
EXTT8=
EXTT9=
EXTT10=
EXTT11=
EXTT12=
EXTT13=
EXTT14=
EXTT15=
EXTT16=
EXTT17=
EXTT18=
EXTT19=
PLAYORDER=
